<svg xmlns="http://www.w3.org/2000/svg" width="120" height="63" viewBox="0 0 120 63" fill="none"><g clip-path="url(#clip0_580_2920)"><path d="M15.5894 0.220703H25.0782L30.1221 14.1889H20.1638L15.5894 0.220703Z" fill="#183EFF"></path><path d="M22.88 0.220703H13.3911L0 37.2924H10.7349C14.78 24.9345 18.8387 12.5805 22.88 0.220703Z" fill="#183EFF"></path><path d="M58.1697 25.724C58.1697 27.9328 56.8677 28.9836 54.3139 28.9836H48.3737V22.252H54.2618C56.7634 22.252 58.1697 23.4626 58.1697 25.7221V25.724ZM57.3874 11.7364C57.3874 13.8925 56.0332 14.9433 53.5315 14.9433H38.1604V37.2904H56.3442C64.2123 37.2904 68.6419 33.4519 68.6419 27.194C68.6419 22.9869 65.9838 19.2537 61.6083 18.2555C65.2033 17.2554 67.8093 14.3117 67.8093 9.84147C67.8093 3.68886 63.2233 0.21875 55.7724 0.21875H52.7859V8.42224H53.5315C56.0332 8.42224 57.3874 9.52566 57.3874 11.7344V11.7364Z" fill="#183EFF"></path><path d="M72.3586 14.877V37.2924H86.8953C98.6192 37.2924 106.07 29.4573 106.07 18.7312C106.07 8.00505 98.6578 0.259693 86.9841 0.220703V9.1845C92.3641 9.50811 95.7022 12.8846 95.7022 18.7292C95.7022 24.5738 92.0029 28.1941 86.1148 28.1941H82.5719V14.877H72.3586Z" fill="#183EFF"></path><path d="M109.787 37.2933H120V14.3945H109.787V37.2933Z" fill="#183EFF"></path><path fill-rule="evenodd" clip-rule="evenodd" d="M72.3586 10.941C78.2254 10.941 82.9815 6.14133 82.9815 0.220703H72.3586V10.941Z" fill="#FFD000"></path><path fill-rule="evenodd" clip-rule="evenodd" d="M38.1604 10.941C44.0272 10.941 48.7832 6.14133 48.7832 0.220703H38.1604V10.941Z" fill="#00B4FF"></path><path fill-rule="evenodd" clip-rule="evenodd" d="M120 0.220703C114.359 0.220703 109.787 4.83517 109.787 10.5277H120V0.220703Z" fill="#FF0000"></path><path fill-rule="evenodd" clip-rule="evenodd" d="M21.605 18.5423C26.7358 16.8384 32.2626 19.6535 33.951 24.8314C35.6393 30.0092 32.8499 35.5867 27.7191 37.2906L21.605 18.5423Z" fill="#00D000"></path><path d="M30.4179 49.7195H27.7018L27.2015 51.1173H26.3438L28.5943 44.8691H29.5331L31.7759 51.1173H30.9182L30.4179 49.7195ZM30.1861 49.0528L29.0598 45.879L27.9336 49.0528H30.1841H30.1861Z" fill="#1D1D1B"></path><path d="M35.8886 46.3764C36.2073 46.5636 36.443 46.7975 36.5995 47.0802V46.1795H37.4205V51.2287C37.4205 51.6791 37.3258 52.0807 37.1346 52.4316C36.9433 52.7825 36.671 53.0574 36.3175 53.2562C35.9639 53.4551 35.5505 53.5545 35.0811 53.5545C34.4378 53.5545 33.9027 53.4005 33.4739 53.0944C33.045 52.7883 32.792 52.3692 32.7147 51.8409H33.5183C33.6072 52.1411 33.7926 52.3828 34.0727 52.5661C34.3528 52.7494 34.689 52.841 35.083 52.841C35.5293 52.841 35.8944 52.6987 36.1764 52.4179C36.4585 52.1353 36.6014 51.7395 36.6014 51.2287V50.1916C36.4411 50.4801 36.2015 50.7199 35.8867 50.9129C35.5718 51.1059 35.2009 51.2014 34.7798 51.2014C34.3586 51.2014 33.951 51.0923 33.5956 50.8778C33.2421 50.6614 32.962 50.3573 32.7611 49.9674C32.5582 49.5775 32.4578 49.1311 32.4578 48.634C32.4578 48.1368 32.5582 47.6865 32.7611 47.3044C32.9639 46.9223 33.2421 46.626 33.5956 46.4154C33.9491 46.2049 34.3451 46.0996 34.7798 46.0996C35.2144 46.0996 35.5737 46.1932 35.8925 46.3784L35.8886 46.3764ZM36.3754 47.6651C36.2267 47.3882 36.0258 47.1777 35.7727 47.0295C35.5196 46.8814 35.2415 46.8092 34.9382 46.8092C34.6349 46.8092 34.3567 46.8814 34.1075 47.0256C33.8583 47.1699 33.6574 47.3804 33.5087 47.6573C33.3599 47.9341 33.2846 48.2577 33.2846 48.6301C33.2846 49.0024 33.3599 49.3377 33.5087 49.6165C33.6574 49.8953 33.8564 50.1097 34.1075 50.2559C34.3567 50.4041 34.6349 50.4762 34.9382 50.4762C35.2415 50.4762 35.5196 50.4022 35.7727 50.2559C36.0258 50.1097 36.2267 49.8953 36.3754 49.6165C36.5242 49.3377 36.5995 49.0102 36.5995 48.6379C36.5995 48.2655 36.5242 47.9399 36.3754 47.6651Z" fill="#1D1D1B"></path><path d="M43.2369 48.9543H39.3231C39.3521 49.4417 39.5182 49.8218 39.8196 50.0948C40.1209 50.3677 40.486 50.5042 40.9149 50.5042C41.2665 50.5042 41.5601 50.4223 41.7939 50.2566C42.0295 50.0909 42.1937 49.8706 42.2903 49.5937H43.1654C43.0341 50.0694 42.7733 50.4554 42.3792 50.7517C41.987 51.05 41.4983 51.1982 40.9149 51.1982C40.4513 51.1982 40.034 51.0929 39.6689 50.8824C39.3019 50.6718 39.016 50.3735 38.8073 49.9856C38.5987 49.5976 38.4944 49.1493 38.4944 48.6385C38.4944 48.1277 38.5948 47.6793 38.7977 47.2953C39.0005 46.9112 39.2845 46.6149 39.6515 46.4063C40.0186 46.1977 40.4397 46.0963 40.9149 46.0963C41.3901 46.0963 41.79 46.1977 42.1474 46.4024C42.5047 46.6071 42.781 46.8878 42.9742 47.2446C43.1674 47.6014 43.2639 48.0068 43.2639 48.4572C43.2639 48.6131 43.2543 48.7788 43.2369 48.9524V48.9543ZM42.2188 47.4805C42.0817 47.2543 41.8962 47.0847 41.6606 46.9658C41.4249 46.8469 41.1641 46.7904 40.8782 46.7904C40.4667 46.7904 40.1171 46.9229 39.8292 47.1861C39.5395 47.4512 39.3753 47.8177 39.3328 48.2856H42.4236C42.4236 47.9737 42.356 47.7047 42.2188 47.4785V47.4805ZM40.8879 44.9695L39.6457 45.7357V45.0865L40.8879 44.3379L42.1203 45.0865V45.7357L40.8879 44.9695Z" fill="#1D1D1B"></path><path d="M48.1688 46.6318C48.5378 46.9964 48.7232 47.5188 48.7232 48.205V51.1176H47.9196V48.322C47.9196 47.8288 47.7979 47.4525 47.5526 47.1913C47.3092 46.9301 46.975 46.7995 46.5519 46.7995C46.1289 46.7995 45.7811 46.934 45.5281 47.205C45.275 47.4759 45.1495 47.8697 45.1495 48.3864V51.1176H44.3362V46.1776H45.1495V46.8813C45.3098 46.6299 45.5281 46.433 45.8063 46.2945C46.0825 46.1561 46.3877 46.0879 46.7219 46.0879C47.3169 46.0879 47.7999 46.2692 48.1688 46.6338V46.6318Z" fill="#1D1D1B"></path><path d="M50.0523 47.3005C50.2551 46.9184 50.5352 46.6221 50.8965 46.4115C51.2558 46.201 51.6692 46.0957 52.1328 46.0957C52.7336 46.0957 53.2301 46.2439 53.6203 46.5382C54.0105 46.8326 54.2674 47.242 54.393 47.7645H53.5179C53.4348 47.4643 53.2726 47.2264 53.0311 47.0529C52.7896 46.8794 52.4902 46.7917 52.1328 46.7917C51.6692 46.7917 51.2925 46.9515 51.0066 47.2732C50.7207 47.5949 50.5777 48.051 50.5777 48.6398C50.5777 49.2285 50.7207 49.6945 51.0066 50.02C51.2925 50.3437 51.6673 50.5074 52.1328 50.5074C52.4902 50.5074 52.7877 50.4236 53.0253 50.254C53.2629 50.0863 53.4271 49.8446 53.516 49.5327H54.3911C54.2597 50.0376 53.9989 50.4411 53.6048 50.7453C53.2127 51.0494 52.7201 51.2014 52.1309 51.2014C51.6673 51.2014 51.2539 51.0962 50.8945 50.8856C50.5333 50.6751 50.2532 50.3768 50.0504 49.9927C49.8475 49.6087 49.7471 49.1564 49.7471 48.6398C49.7471 48.1232 49.8475 47.6826 50.0504 47.3005H50.0523Z" fill="#1D1D1B"></path><path d="M55.5019 45.2131C55.3956 45.1039 55.3416 44.9733 55.3416 44.8173C55.3416 44.6614 55.3956 44.5288 55.5019 44.4216C55.6081 44.3144 55.7395 44.2598 55.894 44.2598C56.0486 44.2598 56.1703 44.3144 56.2727 44.4216C56.377 44.5307 56.4291 44.6614 56.4291 44.8173C56.4291 44.9733 56.377 45.1058 56.2727 45.2131C56.1683 45.3203 56.0428 45.3749 55.894 45.3749C55.7453 45.3749 55.6081 45.3203 55.5019 45.2131ZM56.2881 46.1781V51.1181H55.4748V46.1781H56.2881Z" fill="#1D1D1B"></path><path d="M57.6732 47.3005C57.876 46.9184 58.1542 46.6221 58.5077 46.4115C58.8612 46.201 59.2572 46.0957 59.6919 46.0957C60.1265 46.0957 60.4936 46.1893 60.8084 46.3745C61.1233 46.5597 61.359 46.7956 61.5135 47.0782V46.1776H62.3345V51.1176H61.5135V50.1974C61.3532 50.486 61.1137 50.7258 60.7949 50.9149C60.4762 51.104 60.1053 51.1995 59.6822 51.1995C59.2592 51.1995 58.8535 51.0903 58.5038 50.8759C58.1522 50.6595 57.876 50.3554 57.6732 49.9655C57.4703 49.5756 57.3699 49.1291 57.3699 48.632C57.3699 48.1349 57.4703 47.6845 57.6732 47.3024V47.3005ZM61.2914 47.665C61.1426 47.3882 60.9417 47.1777 60.6887 47.0295C60.4356 46.8813 60.1574 46.8092 59.8541 46.8092C59.5508 46.8092 59.2727 46.8813 59.0235 47.0256C58.7743 47.1699 58.5734 47.3804 58.4246 47.6573C58.2759 47.9341 58.2005 48.2577 58.2005 48.6301C58.2005 49.0024 58.2759 49.3377 58.4246 49.6165C58.5734 49.8953 58.7723 50.1097 59.0235 50.2559C59.2727 50.4041 59.5508 50.4762 59.8541 50.4762C60.1574 50.4762 60.4356 50.4021 60.6887 50.2559C60.9417 50.1097 61.1426 49.8953 61.2914 49.6165C61.4401 49.3377 61.5155 49.0102 61.5155 48.6378C61.5155 48.2655 61.4401 47.9399 61.2914 47.665Z" fill="#1D1D1B"></path><path d="M69.8356 48.1598C70.023 48.3099 70.1718 48.4971 70.2819 48.7193C70.392 48.9416 70.448 49.1794 70.448 49.4309C70.448 49.7487 70.3669 50.0372 70.2065 50.2926C70.0462 50.548 69.8125 50.7488 69.5053 50.8969C69.1982 51.0451 68.8369 51.1172 68.4196 51.1172H66.0977V44.834H68.3308C68.7538 44.834 69.1132 44.9042 69.4126 45.0465C69.7101 45.1868 69.9342 45.3779 70.0829 45.6196C70.2317 45.8594 70.307 46.1304 70.307 46.4306C70.307 46.803 70.2065 47.111 70.0076 47.3547C69.8086 47.5984 69.5439 47.7738 69.2175 47.883C69.4435 47.9181 69.6502 48.0117 69.8376 48.1618L69.8356 48.1598ZM66.9109 47.5477H68.2767C68.6573 47.5477 68.9528 47.458 69.1615 47.2767C69.3701 47.0954 69.4744 46.8478 69.4744 46.5281C69.4744 46.2084 69.3701 45.9608 69.1615 45.7795C68.9528 45.6001 68.6515 45.5085 68.2593 45.5085H66.9109V47.5457V47.5477ZM69.2947 50.1522C69.5208 49.9592 69.6347 49.6921 69.6347 49.349C69.6347 49.0059 69.515 48.7252 69.2774 48.5244C69.0397 48.3236 68.721 48.2222 68.3211 48.2222H66.909V50.4407H68.3462C68.7519 50.4407 69.0668 50.3452 69.2928 50.1522H69.2947Z" fill="#1D1D1B"></path><path d="M72.9979 46.3218C73.2626 46.1659 73.5852 46.0879 73.9677 46.0879V46.9359H73.7533C72.8415 46.9359 72.3875 47.435 72.3875 48.4331V51.1195H71.5742V46.1795H72.3875V46.9827C72.5304 46.7 72.7333 46.4817 72.9999 46.3238L72.9979 46.3218Z" fill="#1D1D1B"></path><path d="M74.9046 47.3005C75.1074 46.9184 75.3856 46.6221 75.7391 46.4115C76.0927 46.201 76.4887 46.0957 76.9233 46.0957C77.358 46.0957 77.725 46.1893 78.0399 46.3745C78.3548 46.5597 78.5904 46.7956 78.745 47.0782V46.1776H79.566V51.1176H78.745V50.1974C78.5846 50.486 78.3451 50.7258 78.0264 50.9149C77.7076 51.104 77.3367 51.1995 76.9137 51.1995C76.4906 51.1995 76.0849 51.0903 75.7353 50.8759C75.3837 50.6595 75.1074 50.3554 74.9046 49.9655C74.7018 49.5756 74.6013 49.1291 74.6013 48.632C74.6013 48.1349 74.7018 47.6845 74.9046 47.3024V47.3005ZM78.5228 47.665C78.3741 47.3882 78.1732 47.1777 77.9201 47.0295C77.667 46.8813 77.3889 46.8092 77.0856 46.8092C76.7823 46.8092 76.5041 46.8813 76.2549 47.0256C76.0057 47.1699 75.8048 47.3804 75.6561 47.6573C75.5073 47.9341 75.432 48.2577 75.432 48.6301C75.432 49.0024 75.5073 49.3377 75.6561 49.6165C75.8048 49.8953 76.0038 50.1097 76.2549 50.2559C76.5041 50.4041 76.7823 50.4762 77.0856 50.4762C77.3889 50.4762 77.667 50.4021 77.9201 50.2559C78.1732 50.1097 78.3741 49.8953 78.5228 49.6165C78.6716 49.3377 78.7469 49.0102 78.7469 48.6378C78.7469 48.2655 78.6716 47.9399 78.5228 47.665Z" fill="#1D1D1B"></path><path d="M81.6678 51.0045C81.3703 50.8759 81.1346 50.6946 80.9627 50.4645C80.7907 50.2325 80.6941 49.9674 80.6768 49.6672H81.5171C81.5403 49.9128 81.6562 50.1156 81.8609 50.2715C82.0657 50.4275 82.3362 50.5055 82.6704 50.5055C82.9794 50.5055 83.2248 50.4372 83.4025 50.2988C83.5802 50.1604 83.671 49.9869 83.671 49.7764C83.671 49.5658 83.5764 49.4001 83.3851 49.2948C83.1939 49.1896 82.9002 49.0862 82.5004 48.9829C82.1372 48.8874 81.8416 48.7899 81.6117 48.6905C81.3819 48.5911 81.1867 48.4449 81.0225 48.248C80.8583 48.053 80.7772 47.7957 80.7772 47.4779C80.7772 47.2264 80.8525 46.9944 81.0013 46.7839C81.15 46.5733 81.3606 46.4076 81.6349 46.2829C81.9092 46.16 82.2222 46.0977 82.5738 46.0977C83.1166 46.0977 83.5532 46.2361 83.8874 46.5129C84.2216 46.7897 84.3993 47.1679 84.4225 47.6495H83.6092C83.5918 47.3902 83.4894 47.1835 83.302 47.0276C83.1147 46.8716 82.8635 46.7936 82.5467 46.7936C82.255 46.7936 82.0232 46.856 81.8493 46.9827C81.6774 47.1094 81.5905 47.2752 81.5905 47.4779C81.5905 47.6397 81.6426 47.7742 81.747 47.8795C81.8513 47.9848 81.9826 48.0686 82.1391 48.131C82.2956 48.1934 82.5158 48.2655 82.7959 48.3435C83.1475 48.439 83.4334 48.5345 83.6536 48.6281C83.8738 48.7217 84.0632 48.862 84.2216 49.0472C84.38 49.2344 84.4611 49.4761 84.4669 49.7783C84.4669 50.0493 84.3916 50.293 84.2428 50.5094C84.0941 50.7258 83.8835 50.8954 83.6131 51.0182C83.3426 51.141 83.0316 51.2034 82.68 51.2034C82.3052 51.2034 81.9672 51.1391 81.6697 51.0104L81.6678 51.0045Z" fill="#1D1D1B"></path><path d="M85.6337 45.2131C85.5275 45.1039 85.4734 44.9733 85.4734 44.8173C85.4734 44.6614 85.5275 44.5288 85.6337 44.4216C85.74 44.3144 85.8713 44.2598 86.0259 44.2598C86.1804 44.2598 86.3021 44.3144 86.4045 44.4216C86.5088 44.5307 86.561 44.6614 86.561 44.8173C86.561 44.9733 86.5088 45.1058 86.4045 45.2131C86.3002 45.3203 86.1746 45.3749 86.0259 45.3749C85.8771 45.3749 85.74 45.3203 85.6337 45.2131ZM86.42 46.1781V51.1181H85.6067V46.1781H86.42Z" fill="#1D1D1B"></path><path d="M88.6182 44.4473V51.1184H87.8049V44.4473H88.6182Z" fill="#1D1D1B"></path><path d="M94.4427 48.9537H90.5289C90.5579 49.441 90.724 49.8212 91.0254 50.0941C91.3268 50.3671 91.6919 50.5035 92.1207 50.5035C92.4723 50.5035 92.7659 50.4216 92.9997 50.2559C93.2353 50.0902 93.3995 49.8699 93.4961 49.5931H94.3712C94.2399 50.0688 93.9791 50.4548 93.585 50.7511C93.1928 51.0494 92.7041 51.1975 92.1207 51.1975C91.6571 51.1975 91.2398 51.0923 90.8747 50.8817C90.5077 50.6712 90.2218 50.3729 90.0131 49.985C89.8045 49.597 89.7002 49.1486 89.7002 48.6378C89.7002 48.1271 89.8006 47.6787 90.0035 47.2946C90.2063 46.9106 90.4903 46.6143 90.8573 46.4057C91.2244 46.1971 91.6455 46.0957 92.1207 46.0957C92.5959 46.0957 92.9958 46.1971 93.3532 46.4018C93.7106 46.6065 93.9868 46.8872 94.18 47.244C94.3732 47.6007 94.4698 48.0062 94.4698 48.4565C94.4698 48.6125 94.4601 48.7782 94.4427 48.9517V48.9537ZM93.4227 47.4798C93.2856 47.2537 93.1001 47.0841 92.8644 46.9652C92.6288 46.8463 92.368 46.7897 92.0821 46.7897C91.6706 46.7897 91.321 46.9223 91.0331 47.1855C90.7434 47.4506 90.5792 47.8171 90.5367 48.285H93.6275C93.6275 47.9731 93.5599 47.704 93.4227 47.4779V47.4798Z" fill="#1D1D1B"></path><path d="M95.5668 45.2131C95.4606 45.1039 95.4065 44.9733 95.4065 44.8173C95.4065 44.6614 95.4606 44.5288 95.5668 44.4216C95.6731 44.3144 95.8044 44.2598 95.959 44.2598C96.1135 44.2598 96.2352 44.3144 96.3376 44.4216C96.4419 44.5307 96.4941 44.6614 96.4941 44.8173C96.4941 44.9733 96.4419 45.1058 96.3376 45.2131C96.2333 45.3203 96.1077 45.3749 95.959 45.3749C95.8102 45.3749 95.6731 45.3203 95.5668 45.2131ZM96.3531 46.1781V51.1181H95.5398V46.1781H96.3531Z" fill="#1D1D1B"></path><path d="M99.164 46.3218C99.4286 46.1659 99.7512 46.0879 100.134 46.0879V46.9359H99.9193C99.0075 46.9359 98.5535 47.435 98.5535 48.4331V51.1195H97.7402V46.1795H98.5535V46.9827C98.6965 46.7 98.8993 46.4817 99.1659 46.3238L99.164 46.3218Z" fill="#1D1D1B"></path><path d="M101.071 47.3005C101.273 46.9184 101.552 46.6221 101.905 46.4115C102.259 46.201 102.655 46.0957 103.089 46.0957C103.524 46.0957 103.891 46.1893 104.206 46.3745C104.521 46.5597 104.756 46.7956 104.911 47.0782V46.1776H105.732V51.1176H104.911V50.1974C104.751 50.486 104.511 50.7258 104.192 50.9149C103.874 51.104 103.503 51.1995 103.08 51.1995C102.657 51.1995 102.251 51.0903 101.901 50.8759C101.55 50.6595 101.273 50.3554 101.071 49.9655C100.868 49.5756 100.767 49.1291 100.767 48.632C100.767 48.1349 100.868 47.6845 101.071 47.3024V47.3005ZM104.689 47.665C104.54 47.3882 104.339 47.1777 104.086 47.0295C103.833 46.8813 103.555 46.8092 103.252 46.8092C102.948 46.8092 102.67 46.8813 102.421 47.0256C102.172 47.1699 101.971 47.3804 101.822 47.6573C101.673 47.9341 101.598 48.2577 101.598 48.6301C101.598 49.0024 101.673 49.3377 101.822 49.6165C101.971 49.8953 102.17 50.1097 102.421 50.2559C102.67 50.4041 102.948 50.4762 103.252 50.4762C103.555 50.4762 103.833 50.4021 104.086 50.2559C104.339 50.1097 104.54 49.8953 104.689 49.6165C104.838 49.3377 104.913 49.0102 104.913 48.6378C104.913 48.2655 104.838 47.9399 104.689 47.665Z" fill="#1D1D1B"></path><path d="M109.495 47.3013C109.698 46.9192 109.976 46.6229 110.329 46.4124C110.683 46.2018 111.081 46.0965 111.521 46.0965C111.902 46.0965 112.257 46.1862 112.584 46.3617C112.912 46.5391 113.161 46.7711 113.335 47.0596V44.4453H114.156V51.1165H113.335V50.1885C113.175 50.4829 112.935 50.7246 112.621 50.9137C112.306 51.1028 111.935 51.1984 111.514 51.1984C111.093 51.1984 110.685 51.0892 110.329 50.8748C109.976 50.6584 109.696 50.3542 109.495 49.9643C109.292 49.5744 109.192 49.128 109.192 48.6309C109.192 48.1338 109.292 47.6834 109.495 47.3013ZM113.111 47.6659C112.962 47.3891 112.762 47.1785 112.509 47.0303C112.255 46.8822 111.977 46.8101 111.674 46.8101C111.371 46.8101 111.093 46.8822 110.843 47.0264C110.594 47.1707 110.393 47.3813 110.244 47.6581C110.096 47.9349 110.02 48.2585 110.02 48.6309C110.02 49.0032 110.096 49.3386 110.244 49.6173C110.393 49.8961 110.592 50.1106 110.843 50.2568C111.093 50.4049 111.371 50.4771 111.674 50.4771C111.977 50.4771 112.255 50.403 112.509 50.2568C112.762 50.1106 112.962 49.8961 113.111 49.6173C113.26 49.3386 113.335 49.011 113.335 48.6387C113.335 48.2663 113.26 47.9408 113.111 47.6659Z" fill="#1D1D1B"></path><path d="M119.973 48.9537H116.059C116.088 49.441 116.254 49.8212 116.556 50.0941C116.857 50.3671 117.222 50.5035 117.651 50.5035C118.003 50.5035 118.296 50.4216 118.53 50.2559C118.766 50.0902 118.93 49.8699 119.026 49.5931H119.902C119.77 50.0688 119.509 50.4548 119.115 50.7511C118.723 51.0494 118.234 51.1975 117.651 51.1975C117.187 51.1975 116.77 51.0923 116.405 50.8817C116.038 50.6712 115.752 50.3729 115.543 49.985C115.335 49.597 115.23 49.1486 115.23 48.6378C115.23 48.1271 115.331 47.6787 115.534 47.2946C115.737 46.9106 116.021 46.6143 116.388 46.4057C116.755 46.1971 117.176 46.0957 117.651 46.0957C118.126 46.0957 118.526 46.1971 118.883 46.4018C119.241 46.6065 119.517 46.8872 119.71 47.244C119.903 47.6007 120 48.0062 120 48.4565C120 48.6125 119.99 48.7782 119.973 48.9517V48.9537ZM118.955 47.4798C118.818 47.2537 118.632 47.0841 118.397 46.9652C118.161 46.8463 117.9 46.7897 117.614 46.7897C117.203 46.7897 116.853 46.9223 116.565 47.1855C116.276 47.4506 116.111 47.8171 116.069 48.285H119.16C119.16 47.9731 119.092 47.704 118.955 47.4779V47.4798Z" fill="#1D1D1B"></path><path d="M3.70321 56.0364C4.19968 56.2918 4.58217 56.6563 4.84683 57.132C5.11148 57.6077 5.24477 58.1652 5.24477 58.8086C5.24477 59.4519 5.11148 60.0095 4.84683 60.4813C4.58217 60.953 4.19968 61.3137 3.70321 61.5632C3.20675 61.8128 2.61756 61.9375 1.9395 61.9375H0V55.6543H1.9395C2.61756 55.6543 3.20675 55.783 3.70321 56.0383V56.0364ZM3.77855 60.6158C4.20161 60.1869 4.41218 59.5825 4.41218 58.8086C4.41218 58.0346 4.19968 57.4166 3.77276 56.978C3.34777 56.5394 2.73539 56.3191 1.93757 56.3191H0.811346V61.2591H1.93757C2.74119 61.2591 3.35549 61.0447 3.77855 60.6138V60.6158Z" fill="#1D1D1B"></path><path d="M10.7562 59.774H6.8424C6.87138 60.2614 7.03751 60.6415 7.33887 60.9144C7.64023 61.1874 8.00533 61.3238 8.43419 61.3238C8.78577 61.3238 9.0794 61.242 9.31315 61.0762C9.54882 60.9105 9.71302 60.6902 9.80961 60.4134H10.6847C10.5533 60.8891 10.2926 61.2751 9.89847 61.5714C9.50632 61.8697 9.01758 62.0179 8.43419 62.0179C7.97056 62.0179 7.5533 61.9126 7.18819 61.702C6.82115 61.4915 6.53525 61.1932 6.32662 60.8053C6.11799 60.4173 6.01367 59.9689 6.01367 59.4582C6.01367 58.9474 6.11412 58.499 6.31696 58.115C6.5198 57.7309 6.80377 57.4346 7.17081 57.226C7.53784 57.0174 7.95897 56.916 8.43419 56.916C8.9094 56.916 9.30928 57.0174 9.66666 57.2221C10.024 57.4268 10.3003 57.7075 10.4935 58.0643C10.6866 58.421 10.7832 58.8265 10.7832 59.2769C10.7832 59.4328 10.7736 59.5985 10.7562 59.772V59.774ZM9.73814 58.2982C9.60098 58.0721 9.41553 57.9025 9.17985 57.7835C8.94418 57.6646 8.68339 57.6081 8.39748 57.6081C7.98602 57.6081 7.63636 57.7407 7.34853 58.0038C7.05876 58.269 6.89456 58.6355 6.85206 59.1034H9.9429C9.9429 58.7914 9.87529 58.5224 9.73814 58.2963V58.2982Z" fill="#1D1D1B"></path><path d="M12.5779 61.8249C12.2804 61.6962 12.0447 61.5149 11.8728 61.2849C11.7009 61.0529 11.6043 60.7877 11.5869 60.4875H12.4272C12.4504 60.7331 12.5663 60.9359 12.7711 61.0918C12.9759 61.2478 13.2463 61.3258 13.5805 61.3258C13.8896 61.3258 14.1349 61.2576 14.3126 61.1191C14.4904 60.9807 14.5812 60.8072 14.5812 60.5967C14.5812 60.3861 14.4865 60.2204 14.2953 60.1152C14.104 60.0099 13.8104 59.9066 13.4105 59.8032C13.0473 59.7077 12.7518 59.6102 12.5219 59.5108C12.292 59.4114 12.0969 59.2652 11.9327 59.0683C11.7685 58.8733 11.6874 58.616 11.6874 58.2982C11.6874 58.0467 11.7627 57.8147 11.9115 57.6042C12.0602 57.3937 12.2708 57.2279 12.5451 57.1032C12.8194 56.9804 13.1323 56.918 13.4839 56.918C14.0267 56.918 14.4633 57.0564 14.7975 57.3332C15.1317 57.61 15.3094 57.9882 15.3326 58.4698H14.5194C14.502 58.2105 14.3996 58.0038 14.2122 57.8479C14.0248 57.6919 13.7737 57.6139 13.4569 57.6139C13.1652 57.6139 12.9334 57.6763 12.7595 57.803C12.5876 57.9298 12.5006 58.0955 12.5006 58.2982C12.5006 58.46 12.5528 58.5945 12.6571 58.6998C12.7614 58.8051 12.8928 58.8889 13.0493 58.9513C13.2057 59.0137 13.426 59.0858 13.7061 59.1638C14.0577 59.2593 14.3436 59.3548 14.5638 59.4484C14.784 59.542 14.9733 59.6824 15.1317 59.8676C15.2901 60.0547 15.3713 60.2965 15.3771 60.5986C15.3771 60.8696 15.3017 61.1133 15.153 61.3297C15.0042 61.5461 14.7937 61.7157 14.5232 61.8385C14.2528 61.9613 13.9417 62.0237 13.5902 62.0237C13.2154 62.0237 12.8773 61.9594 12.5798 61.8307L12.5779 61.8249Z" fill="#1D1D1B"></path><path d="M20.9578 59.774H17.0441C17.073 60.2614 17.2392 60.6415 17.5405 60.9144C17.8419 61.1874 18.207 61.3238 18.6358 61.3238C18.9874 61.3238 19.2811 61.242 19.5148 61.0762C19.7505 60.9105 19.9147 60.6902 20.0113 60.4134H20.8864C20.755 60.8891 20.4942 61.2751 20.1001 61.5714C19.708 61.8697 19.2192 62.0179 18.6358 62.0179C18.1722 62.0179 17.755 61.9126 17.3899 61.702C17.0228 61.4915 16.7369 61.1932 16.5283 60.8053C16.3196 60.4173 16.2153 59.9689 16.2153 59.4582C16.2153 58.9474 16.3158 58.499 16.5186 58.115C16.7215 57.7309 17.0054 57.4346 17.3725 57.226C17.7395 57.0174 18.1606 56.916 18.6358 56.916C19.1111 56.916 19.5109 57.0174 19.8683 57.2221C20.2257 57.4268 20.5019 57.7075 20.6951 58.0643C20.8883 58.421 20.9849 58.8265 20.9849 59.2769C20.9849 59.4328 20.9752 59.5985 20.9578 59.772V59.774ZM19.9398 58.2982C19.8026 58.0721 19.6172 57.9025 19.3815 57.7835C19.1458 57.6646 18.885 57.6081 18.5991 57.6081C18.1877 57.6081 17.838 57.7407 17.5502 58.0038C17.2604 58.269 17.0962 58.6355 17.0537 59.1034H20.1446C20.1446 58.7914 20.077 58.5224 19.9398 58.2963V58.2982Z" fill="#1D1D1B"></path><path d="M25.8878 57.4521C26.2568 57.8167 26.4422 58.3391 26.4422 59.0254V61.9379H25.6386V59.1423C25.6386 58.6491 25.5169 58.2729 25.2716 58.0116C25.0282 57.7504 24.694 57.6198 24.2709 57.6198C23.8479 57.6198 23.5001 57.7543 23.2471 58.0253C22.994 58.2962 22.8685 58.69 22.8685 59.2067V61.9379H22.0552V56.9979H22.8685V57.7017C23.0288 57.4502 23.2471 57.2533 23.5253 57.1148C23.8015 56.9764 24.1067 56.9082 24.4409 56.9082C25.0359 56.9082 25.5188 57.0895 25.8878 57.4541V57.4521Z" fill="#1D1D1B"></path><path d="M29.5948 61.1797L31.1132 56.9961H31.9805L30.0604 61.9361H29.1138L27.1936 56.9961H28.0687L29.5967 61.1797H29.5948Z" fill="#1D1D1B"></path><path d="M33.6729 61.702C33.3 61.4915 33.0083 61.1932 32.7978 60.8053C32.5872 60.4173 32.481 59.9689 32.481 59.4582C32.481 58.9474 32.5891 58.5068 32.8074 58.1189C33.0238 57.7309 33.3213 57.4326 33.696 57.226C34.0708 57.0193 34.4919 56.916 34.9556 56.916C35.4192 56.916 35.8403 57.0193 36.2151 57.226C36.5898 57.4326 36.8873 57.729 37.1037 58.115C37.3201 58.499 37.4302 58.9474 37.4302 59.4582C37.4302 59.9689 37.3181 60.4173 37.096 60.8053C36.8719 61.1932 36.5705 61.4915 36.19 61.702C35.8094 61.9126 35.3863 62.0179 34.9208 62.0179C34.4552 62.0179 34.0476 61.9126 33.6748 61.702H33.6729ZM35.7418 61.0899C35.9987 60.9515 36.2054 60.7448 36.3619 60.468C36.5203 60.1912 36.5995 59.8559 36.5995 59.4582C36.5995 59.0605 36.5222 58.7251 36.3677 58.4483C36.2131 58.1715 36.0103 57.9668 35.7592 57.8303C35.51 57.6958 35.2376 57.6276 34.9459 57.6276C34.6542 57.6276 34.376 57.6958 34.1288 57.8303C33.8815 57.9648 33.6845 58.1715 33.5338 58.4483C33.385 58.7251 33.3097 59.0605 33.3097 59.4582C33.3097 59.8559 33.3831 60.2009 33.528 60.4777C33.6729 60.7546 33.868 60.9593 34.1133 61.0957C34.3567 61.2303 34.6252 61.2985 34.9169 61.2985C35.2086 61.2985 35.4829 61.2303 35.7379 61.0918L35.7418 61.0899Z" fill="#1D1D1B"></path><path d="M39.3155 55.2656V61.9368H38.5022V55.2656H39.3155Z" fill="#1D1D1B"></path><path d="M42.5223 61.1797L44.0407 56.9961H44.908L42.9878 61.9361H42.0413L40.1211 56.9961H40.9962L42.5242 61.1797H42.5223Z" fill="#1D1D1B"></path><path d="M45.7387 56.0314C45.6325 55.9223 45.5784 55.7916 45.5784 55.6357C45.5784 55.4797 45.6325 55.3472 45.7387 55.2399C45.845 55.1327 45.9763 55.0781 46.1309 55.0781C46.2854 55.0781 46.4071 55.1327 46.5095 55.2399C46.6138 55.3491 46.666 55.4797 46.666 55.6357C46.666 55.7916 46.6138 55.9242 46.5095 56.0314C46.4052 56.1386 46.2796 56.1932 46.1309 56.1932C45.9821 56.1932 45.845 56.1386 45.7387 56.0314ZM46.5249 56.9964V61.9365H45.7117V56.9964H46.5249Z" fill="#1D1D1B"></path><path d="M54.8141 57.146C55.1116 57.3059 55.3472 57.5437 55.5192 57.8635C55.6911 58.1812 55.778 58.5692 55.778 59.0273V61.9399H54.9744V59.1443C54.9744 58.6511 54.8546 58.2748 54.6132 58.0136C54.3717 57.7523 54.0452 57.6217 53.6357 57.6217C53.2262 57.6217 52.8765 57.7582 52.6254 58.0311C52.3743 58.304 52.2506 58.6998 52.2506 59.2164V61.9399H51.447V59.1443C51.447 58.6511 51.3272 58.2748 51.0858 58.0136C50.8443 57.7523 50.5178 57.6217 50.1083 57.6217C49.6987 57.6217 49.3491 57.7582 49.098 58.0311C48.8468 58.304 48.7232 58.6998 48.7232 59.2164V61.9399H47.9099V56.9998H48.7232V57.7114C48.8835 57.4521 49.0999 57.2552 49.3703 57.1168C49.6408 56.9784 49.9402 56.9102 50.2686 56.9102C50.6801 56.9102 51.0433 57.0037 51.3581 57.1889C51.673 57.3761 51.9087 57.649 52.0632 58.0097C52.2004 57.6607 52.4264 57.3897 52.7432 57.1987C53.0581 57.0057 53.4097 56.9102 53.798 56.9102C54.1863 56.9102 54.5185 56.9901 54.816 57.1499L54.8141 57.146Z" fill="#1D1D1B"></path><path d="M61.5504 59.774H57.6366C57.6656 60.2614 57.8317 60.6415 58.1331 60.9144C58.4344 61.1874 58.7995 61.3238 59.2284 61.3238C59.58 61.3238 59.8736 61.242 60.1073 61.0762C60.343 60.9105 60.5072 60.6902 60.6038 60.4134H61.4789C61.3475 60.8891 61.0867 61.2751 60.6927 61.5714C60.3005 61.8697 59.8118 62.0179 59.2284 62.0179C58.7648 62.0179 58.3475 61.9126 57.9824 61.702C57.6153 61.4915 57.3294 61.1932 57.1208 60.8053C56.9122 60.4173 56.8079 59.9689 56.8079 59.4582C56.8079 58.9474 56.9083 58.499 57.1112 58.115C57.314 57.7309 57.598 57.4346 57.965 57.226C58.332 57.0193 58.7532 56.916 59.2284 56.916C59.7036 56.916 60.1035 57.0174 60.4609 57.2221C60.8182 57.4268 61.0945 57.7075 61.2877 58.0643C61.4808 58.421 61.5774 58.8265 61.5774 59.2769C61.5774 59.4328 61.5678 59.5985 61.5504 59.772V59.774ZM60.5323 58.2982C60.3952 58.0721 60.2097 57.9025 59.974 57.7835C59.7384 57.6646 59.4776 57.6081 59.1917 57.6081C58.7802 57.6081 58.4306 57.7407 58.1427 58.0038C57.853 58.269 57.6888 58.6355 57.6463 59.1034H60.7371C60.7371 58.7914 60.6695 58.5224 60.5323 58.2963V58.2982Z" fill="#1D1D1B"></path><path d="M66.4801 57.4521C66.8491 57.8167 67.0345 58.3391 67.0345 59.0254V61.9379H66.2309V59.1423C66.2309 58.6491 66.1092 58.2729 65.8639 58.0116C65.6205 57.7504 65.2863 57.6198 64.8632 57.6198C64.4401 57.6198 64.0924 57.7543 63.8394 58.0253C63.5863 58.2962 63.4607 58.69 63.4607 59.2067V61.9379H62.6475V56.9979H63.4607V57.7017C63.6211 57.4502 63.8394 57.2533 64.1175 57.1148C64.3938 56.9764 64.699 56.9082 65.0332 56.9082C65.6282 56.9082 66.1111 57.0895 66.4801 57.4541V57.4521Z" fill="#1D1D1B"></path><path d="M69.3585 57.6722V60.5848C69.3585 60.8245 69.4088 60.9942 69.5112 61.0936C69.6135 61.193 69.7874 61.2417 70.0385 61.2417H70.6374V61.9358H69.9052C69.4532 61.9358 69.1132 61.8305 68.8872 61.6199C68.6612 61.4094 68.5472 61.0643 68.5472 60.5828V57.6703H67.9136V56.9938H68.5472V55.75H69.3605V56.9938H70.6374V57.6703H69.3605L69.3585 57.6722Z" fill="#1D1D1B"></path><path d="M72.5073 61.702C72.1345 61.4915 71.8428 61.1932 71.6322 60.8053C71.4217 60.4173 71.3154 59.9689 71.3154 59.4582C71.3154 58.9474 71.4236 58.5068 71.6419 58.1189C71.8583 57.7309 72.1557 57.4326 72.5305 57.226C72.9053 57.0193 73.3264 56.916 73.79 56.916C74.2537 56.916 74.6748 57.0193 75.0496 57.226C75.4243 57.4326 75.7218 57.729 75.9382 58.115C76.1545 58.499 76.2646 58.9474 76.2646 59.4582C76.2646 59.9689 76.1526 60.4173 75.9304 60.8053C75.7064 61.1932 75.405 61.4915 75.0244 61.702C74.6439 61.9126 74.2208 62.0179 73.7553 62.0179C73.2897 62.0179 72.8821 61.9126 72.5093 61.702H72.5073ZM74.5743 61.0899C74.8313 60.9515 75.038 60.7448 75.1944 60.468C75.3528 60.1912 75.432 59.8559 75.432 59.4582C75.432 59.0605 75.3548 58.7251 75.2002 58.4483C75.0457 58.1715 74.8429 57.9668 74.5917 57.8303C74.3425 57.6958 74.0701 57.6276 73.7784 57.6276C73.4867 57.6276 73.2086 57.6958 72.9613 57.8303C72.714 57.9648 72.517 58.1715 72.3663 58.4483C72.2176 58.7251 72.1422 59.0605 72.1422 59.4582C72.1422 59.8559 72.2156 60.2009 72.3605 60.4777C72.5054 60.7546 72.7005 60.9593 72.9458 61.0957C73.1892 61.2303 73.4578 61.2985 73.7495 61.2985C74.0412 61.2985 74.3155 61.2303 74.5705 61.0918L74.5743 61.0899Z" fill="#1D1D1B"></path><path d="M80.5337 55.6523V61.9356H79.7205V55.6523H80.5337Z" fill="#1D1D1B"></path><path d="M85.7496 57.4521C86.1186 57.8167 86.3041 58.3391 86.3041 59.0254V61.9379H85.5004V59.1423C85.5004 58.6491 85.3787 58.2729 85.1334 58.0116C84.89 57.7504 84.5558 57.6198 84.1327 57.6198C83.7097 57.6198 83.362 57.7543 83.1089 58.0253C82.8558 58.2962 82.7303 58.69 82.7303 59.2067V61.9379H81.917V56.9979H82.7303V57.7017C82.8906 57.4502 83.1089 57.2533 83.3871 57.1148C83.6633 56.9764 83.9685 56.9082 84.3027 56.9082C84.8977 56.9082 85.3807 57.0895 85.7496 57.4541V57.4521Z" fill="#1D1D1B"></path><path d="M87.6351 58.1197C87.8379 57.7376 88.1161 57.4413 88.4696 57.2307C88.8231 57.0202 89.2211 56.9149 89.6615 56.9149C90.0421 56.9149 90.3975 57.0046 90.724 57.18C91.0524 57.3574 91.3016 57.5894 91.4754 57.878V55.2637H92.2965V61.9349H91.4754V61.0069C91.3151 61.3013 91.0756 61.543 90.7607 61.7321C90.4458 61.9212 90.0749 62.0167 89.6538 62.0167C89.2327 62.0167 88.8251 61.9076 88.4696 61.6931C88.1161 61.4767 87.836 61.1726 87.6351 60.7827C87.4322 60.3928 87.3318 59.9464 87.3318 59.4492C87.3318 58.9521 87.4322 58.5018 87.6351 58.1197ZM91.2533 58.4842C91.1045 58.2074 90.9036 57.9969 90.6506 57.8487C90.3975 57.7005 90.1193 57.6284 89.8161 57.6284C89.5128 57.6284 89.2346 57.7005 88.9854 57.8448C88.7362 57.9891 88.5353 58.1996 88.3865 58.4764C88.2378 58.7533 88.1625 59.0769 88.1625 59.4492C88.1625 59.8216 88.2378 60.1569 88.3865 60.4357C88.5353 60.7145 88.7343 60.9289 88.9854 61.0751C89.2346 61.2233 89.5128 61.2954 89.8161 61.2954C90.1193 61.2954 90.3975 61.2213 90.6506 61.0751C90.9036 60.9289 91.1045 60.7145 91.2533 60.4357C91.402 60.1569 91.4774 59.8294 91.4774 59.457C91.4774 59.0847 91.402 58.7591 91.2533 58.4842Z" fill="#1D1D1B"></path><path d="M98.0145 56.9961V61.9361H97.2013V61.2051C97.0467 61.4565 96.8304 61.6534 96.5541 61.7958C96.2779 61.9361 95.9726 62.0083 95.6384 62.0083C95.2579 62.0083 94.914 61.9283 94.6107 61.7685C94.3075 61.6086 94.0679 61.3708 93.8921 61.051C93.7163 60.7333 93.6294 60.3453 93.6294 59.8872V56.9941H94.433V59.78C94.433 60.2674 94.5547 60.6417 94.8001 60.9029C95.0435 61.1641 95.3777 61.2947 95.8007 61.2947C96.2238 61.2947 96.5773 61.1602 96.8284 60.8892C97.0776 60.6183 97.2032 60.2245 97.2032 59.7078V56.9941H98.0165L98.0145 56.9961Z" fill="#1D1D1B"></path><path d="M100.114 61.8249C99.8168 61.6962 99.5811 61.5149 99.4092 61.2849C99.2373 61.0529 99.1407 60.7877 99.1233 60.4875H99.9636C99.9868 60.7331 100.103 60.9359 100.307 61.0918C100.512 61.2478 100.783 61.3258 101.117 61.3258C101.426 61.3258 101.671 61.2576 101.849 61.1191C102.027 60.9807 102.118 60.8072 102.118 60.5967C102.118 60.3861 102.023 60.2204 101.832 60.1152C101.64 60.0099 101.347 59.9066 100.947 59.8032C100.584 59.7077 100.288 59.6102 100.058 59.5108C99.8284 59.4114 99.6333 59.2652 99.4691 59.0683C99.3049 58.8733 99.2237 58.616 99.2237 58.2982C99.2237 58.0467 99.2991 57.8147 99.4478 57.6042C99.5966 57.3937 99.8071 57.2279 100.081 57.1032C100.356 56.9804 100.669 56.918 101.02 56.918C101.563 56.918 102 57.0564 102.334 57.3332C102.668 57.61 102.846 57.9882 102.869 58.4698H102.056C102.038 58.2105 101.936 58.0038 101.749 57.8479C101.561 57.6919 101.31 57.6139 100.993 57.6139C100.702 57.6139 100.47 57.6763 100.296 57.803C100.124 57.9298 100.037 58.0955 100.037 58.2982C100.037 58.46 100.089 58.5945 100.193 58.6998C100.298 58.8051 100.429 58.8889 100.586 58.9513C100.742 59.0137 100.962 59.0858 101.242 59.1638C101.594 59.2593 101.88 59.3548 102.1 59.4484C102.32 59.542 102.51 59.6824 102.668 59.8676C102.827 60.0547 102.908 60.2965 102.913 60.5986C102.913 60.8696 102.838 61.1133 102.689 61.3297C102.541 61.5461 102.33 61.7157 102.06 61.8385C101.789 61.9613 101.478 62.0237 101.127 62.0237C100.752 62.0237 100.414 61.9594 100.116 61.8307L100.114 61.8249Z" fill="#1D1D1B"></path><path d="M105.046 57.6722V60.5848C105.046 60.8245 105.096 60.9942 105.199 61.0936C105.301 61.193 105.475 61.2417 105.726 61.2417H106.325V61.9358H105.593C105.141 61.9358 104.801 61.8305 104.575 61.6199C104.349 61.4094 104.235 61.0643 104.235 60.5828V57.6703H103.601V56.9938H104.235V55.75H105.048V56.9938H106.325V57.6703H105.048L105.046 57.6722Z" fill="#1D1D1B"></path><path d="M108.73 57.1402C108.995 56.9842 109.317 56.9062 109.7 56.9062V57.7543H109.485C108.574 57.7543 108.12 58.2534 108.12 59.2515V61.9379H107.306V56.9979H108.12V57.8011C108.263 57.5184 108.465 57.3001 108.732 57.1421L108.73 57.1402Z" fill="#1D1D1B"></path><path d="M110.666 56.0314C110.559 55.9223 110.505 55.7916 110.505 55.6357C110.505 55.4797 110.559 55.3472 110.666 55.2399C110.772 55.1327 110.903 55.0781 111.058 55.0781C111.212 55.0781 111.334 55.1327 111.436 55.2399C111.541 55.3491 111.593 55.4797 111.593 55.6357C111.593 55.7916 111.541 55.9242 111.436 56.0314C111.332 56.1386 111.207 56.1932 111.058 56.1932C110.909 56.1932 110.772 56.1386 110.666 56.0314ZM111.452 56.9964V61.9365H110.639V56.9964H111.452Z" fill="#1D1D1B"></path><path d="M112.835 58.1189C113.038 57.7367 113.316 57.4404 113.67 57.2299C114.023 57.0193 114.419 56.9141 114.854 56.9141C115.288 56.9141 115.655 57.0076 115.97 57.1928C116.285 57.378 116.521 57.6139 116.675 57.8966V56.9959H117.496V61.936H116.675V61.0158C116.515 61.3043 116.276 61.5441 115.957 61.7332C115.638 61.9223 115.267 62.0178 114.844 62.0178C114.421 62.0178 114.015 61.9087 113.666 61.6942C113.314 61.4778 113.038 61.1737 112.835 60.7838C112.632 60.3939 112.532 59.9475 112.532 59.4504C112.532 58.9532 112.632 58.5029 112.835 58.1208V58.1189ZM116.453 58.4834C116.304 58.2066 116.104 57.996 115.851 57.8479C115.597 57.6997 115.319 57.6276 115.016 57.6276C114.713 57.6276 114.435 57.6997 114.185 57.844C113.936 57.9882 113.735 58.1988 113.586 58.4756C113.438 58.7524 113.362 59.0761 113.362 59.4484C113.362 59.8208 113.438 60.1561 113.586 60.4349C113.735 60.7136 113.934 60.9281 114.185 61.0743C114.435 61.2225 114.713 61.2946 115.016 61.2946C115.319 61.2946 115.597 61.2205 115.851 61.0743C116.104 60.9281 116.304 60.7136 116.453 60.4349C116.602 60.1561 116.677 59.8286 116.677 59.4562C116.677 59.0839 116.602 58.7583 116.453 58.4834Z" fill="#1D1D1B"></path><path d="M119.687 55.2656V61.9368H118.874V55.2656H119.687Z" fill="#1D1D1B"></path></g><defs><clipPath id="clip0_580_2920"><rect width="120" height="61.7972" fill="white" transform="translate(0 0.220703)"></rect></clipPath></defs></svg>